{
    "asset" : {
        "generator" : "Khronos glTF Blender I/O v1.6.16",
        "version" : "2.0"
    },
    "scene" : 0,
    "scenes" : [
        {
            "name" : "Scene",
            "nodes" : [
                1,
                9
            ]
        }
    ],
    "nodes" : [
        {
            "mesh" : 0,
            "name" : "Bostic_Furniture:Table_lambert1_0",
            "scale" : [
                3,
                3,
                3
            ]
        },
        {
            "children" : [
                0
            ],
            "name" : "Bostic_Furniture:Table",
            "scale" : [
                9.804985046386719,
                0.9804984927177429,
                4.902492523193359
            ],
            "translation" : [
                9,
                -1,
                0
            ]
        },
        {
            "mesh" : 1,
            "name" : "Box001_Material #29_0"
        },
        {
            "children" : [
                2
            ],
            "name" : "Box001",
            "rotation" : [
                -0.7071068286895752,
                0,
                0,
                0.7071068286895752
            ]
        },
        {
            "mesh" : 2,
            "name" : "Object001_Material #29_0"
        },
        {
            "children" : [
                4
            ],
            "name" : "Object001",
            "rotation" : [
                -0.7071068286895752,
                0,
                0,
                0.7071068286895752
            ]
        },
        {
            "children" : [
                3,
                5
            ],
            "name" : "RootNode"
        },
        {
            "children" : [
                6
            ],
            "name" : "LegoLampUP.FBX",
            "rotation" : [
                0.7071068286895752,
                0,
                0,
                0.7071068286895752
            ]
        },
        {
            "children" : [
                7
            ],
            "name" : "RootNode (model correction matrix)"
        },
        {
            "children" : [
                8
            ],
            "name" : "RootNode (gltf orientation matrix)",
            "rotation" : [
                0.5,
                -0.5,
                -0.5,
                -0.5
            ],
            "scale" : [
                3,
                3,
                3
            ],
            "translation" : [
                18,
                0,
                0
            ]
        }
    ],
    "materials" : [
        {
            "doubleSided" : true,
            "name" : "lambert1.001",
            "pbrMetallicRoughness" : {
                "baseColorFactor" : [
                    0.5,
                    0.5,
                    0.5,
                    1
                ],
                "metallicFactor" : 0,
                "roughnessFactor" : 0.6000000238418579
            }
        },
        {
            "doubleSided" : true,
            "name" : "Material_29.002",
            "pbrMetallicRoughness" : {
                "baseColorTexture" : {
                    "index" : 0
                },
                "metallicFactor" : 0,
                "roughnessFactor" : 0.4190167784690857
            }
        }
    ],
    "meshes" : [
        {
            "name" : "Bostic_Furniture:Table_lambert1_0.001",
            "primitives" : [
                {
                    "attributes" : {
                        "POSITION" : 0,
                        "NORMAL" : 1,
                        "TEXCOORD_0" : 2,
                        "COLOR_0" : 3
                    },
                    "indices" : 4,
                    "material" : 0
                }
            ]
        },
        {
            "name" : "Box001_Material #29_0.002",
            "primitives" : [
                {
                    "attributes" : {
                        "POSITION" : 5,
                        "NORMAL" : 6,
                        "TEXCOORD_0" : 7
                    },
                    "indices" : 8,
                    "material" : 1
                }
            ]
        },
        {
            "name" : "Object001_Material #29_0.002",
            "primitives" : [
                {
                    "attributes" : {
                        "POSITION" : 9,
                        "NORMAL" : 10,
                        "TEXCOORD_0" : 11
                    },
                    "indices" : 12,
                    "material" : 1
                }
            ]
        }
    ],
    "textures" : [
        {
            "sampler" : 0,
            "source" : 0
        }
    ],
    "images" : [
        {
            "mimeType" : "image/png",
            "name" : "Material_29_baseColor",
            "uri" : "textures/Material_29_baseColor.png"
        }
    ],
    "accessors" : [
        {
            "bufferView" : 0,
            "componentType" : 5126,
            "count" : 308,
            "max" : [
                0.6000006198883057,
                0.3477182388305664,
                0.6000001430511475
            ],
            "min" : [
                -0.6000000834465027,
                -4.061332702636719,
                -0.6000001430511475
            ],
            "type" : "VEC3"
        },
        {
            "bufferView" : 1,
            "componentType" : 5126,
            "count" : 308,
            "type" : "VEC3"
        },
        {
            "bufferView" : 2,
            "componentType" : 5126,
            "count" : 308,
            "type" : "VEC2"
        },
        {
            "bufferView" : 3,
            "componentType" : 5123,
            "count" : 308,
            "normalized" : true,
            "type" : "VEC4"
        },
        {
            "bufferView" : 4,
            "componentType" : 5123,
            "count" : 432,
            "type" : "SCALAR"
        },
        {
            "bufferView" : 5,
            "componentType" : 5126,
            "count" : 2848,
            "max" : [
                1.6250282526016235,
                2.092118740081787,
                6.09513521194458
            ],
            "min" : [
                -1.6250282526016235,
                -1.7704143524169922,
                0
            ],
            "type" : "VEC3"
        },
        {
            "bufferView" : 6,
            "componentType" : 5126,
            "count" : 2848,
            "type" : "VEC3"
        },
        {
            "bufferView" : 7,
            "componentType" : 5126,
            "count" : 2848,
            "type" : "VEC2"
        },
        {
            "bufferView" : 8,
            "componentType" : 5123,
            "count" : 4428,
            "type" : "SCALAR"
        },
        {
            "bufferView" : 9,
            "componentType" : 5126,
            "count" : 174,
            "max" : [
                0.5197610855102539,
                1.8192946910858154,
                4.8773651123046875
            ],
            "min" : [
                -0.517424464225769,
                1.114509105682373,
                4.056041717529297
            ],
            "type" : "VEC3"
        },
        {
            "bufferView" : 10,
            "componentType" : 5126,
            "count" : 174,
            "type" : "VEC3"
        },
        {
            "bufferView" : 11,
            "componentType" : 5126,
            "count" : 174,
            "type" : "VEC2"
        },
        {
            "bufferView" : 12,
            "componentType" : 5123,
            "count" : 276,
            "type" : "SCALAR"
        }
    ],
    "bufferViews" : [
        {
            "buffer" : 0,
            "byteLength" : 3696,
            "byteOffset" : 0
        },
        {
            "buffer" : 0,
            "byteLength" : 3696,
            "byteOffset" : 3696
        },
        {
            "buffer" : 0,
            "byteLength" : 2464,
            "byteOffset" : 7392
        },
        {
            "buffer" : 0,
            "byteLength" : 2464,
            "byteOffset" : 9856
        },
        {
            "buffer" : 0,
            "byteLength" : 864,
            "byteOffset" : 12320
        },
        {
            "buffer" : 0,
            "byteLength" : 34176,
            "byteOffset" : 13184
        },
        {
            "buffer" : 0,
            "byteLength" : 34176,
            "byteOffset" : 47360
        },
        {
            "buffer" : 0,
            "byteLength" : 22784,
            "byteOffset" : 81536
        },
        {
            "buffer" : 0,
            "byteLength" : 8856,
            "byteOffset" : 104320
        },
        {
            "buffer" : 0,
            "byteLength" : 2088,
            "byteOffset" : 113176
        },
        {
            "buffer" : 0,
            "byteLength" : 2088,
            "byteOffset" : 115264
        },
        {
            "buffer" : 0,
            "byteLength" : 1392,
            "byteOffset" : 117352
        },
        {
            "buffer" : 0,
            "byteLength" : 552,
            "byteOffset" : 118744
        }
    ],
    "samplers" : [
        {
            "magFilter" : 9729,
            "minFilter" : 9987
        }
    ],
    "buffers" : [
        {
            "byteLength" : 119296,
            "uri" : "scene.bin"
        }
    ]
}
