{
    "asset" : {
        "generator" : "Khronos glTF Blender I/O v1.6.16",
        "version" : "2.0"
    },
    "scene" : 0,
    "scenes" : [
        {
            "name" : "Scene",
            "nodes" : [
                0,
                8
            ]
        }
    ],
    "nodes" : [
        {
            "mesh" : 0,
            "name" : "pCylinder4_lambert1_0",
            "scale" : [
                0.5,
                0.5,
                0.5
            ],
            "translation" : [
                0,
                4.820000171661377,
                3.6500000953674316
            ]
        },
        {
            "name" : "Object_11.001",
            "scale" : [
                0.987500011920929,
                0.9910709857940674,
                0.987500011920929
            ],
            "translation" : [
                -30,
                -23.91071319580078,
                10
            ]
        },
        {
            "mesh" : 1,
            "name" : "Base.003"
        },
        {
            "children" : [
                2
            ],
            "name" : "Object_13.001",
            "scale" : [
                0.987500011920929,
                0.9910709857940674,
                0.987500011920929
            ],
            "translation" : [
                -30,
                -24.113882064819336,
                10
            ]
        },
        {
            "children" : [
                1,
                3
            ],
            "name" : "Inner-Node-UntitledModel_dot_io-0"
        },
        {
            "children" : [
                4
            ],
            "name" : "Node-UntitledModel_dot_io"
        },
        {
            "children" : [
                5
            ],
            "name" : "Model",
            "rotation" : [
                0,
                1,
                0,
                0
            ],
            "scale" : [
                -1,
                -1,
                -1
            ]
        },
        {
            "children" : [
                6
            ],
            "name" : "Collada visual scene group",
            "rotation" : [
                0.7071068286895752,
                0,
                0,
                0.7071068286895752
            ]
        },
        {
            "children" : [
                7
            ],
            "name" : "Sketchfab_model",
            "rotation" : [
                -0.7071068286895752,
                0,
                0,
                0.7071068286895752
            ],
            "scale" : [
                0.25,
                0.25,
                0.25
            ],
            "translation" : [
                7.5,
                0,
                -2.5
            ]
        }
    ],
    "materials" : [
        {
            "doubleSided" : true,
            "name" : "lambert1.002",
            "pbrMetallicRoughness" : {
                "baseColorFactor" : [
                    0.4000000059604645,
                    0.4000000059604645,
                    0.4000000059604645,
                    1
                ],
                "metallicFactor" : 0,
                "roughnessFactor" : 0.6000000238418579
            }
        },
        {
            "doubleSided" : true,
            "name" : "SOLID-WHITE_0.002",
            "pbrMetallicRoughness" : {
                "baseColorFactor" : [
                    0.9960780143737793,
                    0.9960780143737793,
                    0.9960780143737793,
                    1
                ],
                "metallicFactor" : 0,
                "roughnessFactor" : 0.6636414527893066
            }
        }
    ],
    "meshes" : [
        {
            "name" : "pCylinder4_lambert1_0",
            "primitives" : [
                {
                    "attributes" : {
                        "POSITION" : 0,
                        "NORMAL" : 1,
                        "TEXCOORD_0" : 2
                    },
                    "indices" : 3,
                    "material" : 0
                }
            ]
        },
        {
            "name" : "Base.005",
            "primitives" : [
                {
                    "attributes" : {
                        "POSITION" : 4,
                        "NORMAL" : 5
                    },
                    "indices" : 6,
                    "material" : 1
                }
            ]
        }
    ],
    "accessors" : [
        {
            "bufferView" : 0,
            "componentType" : 5126,
            "count" : 121,
            "max" : [
                5,
                4.300000190734863,
                -2.322014331817627
            ],
            "min" : [
                -5,
                -2,
                -12.322013854980469
            ],
            "type" : "VEC3"
        },
        {
            "bufferView" : 1,
            "componentType" : 5126,
            "count" : 121,
            "type" : "VEC3"
        },
        {
            "bufferView" : 2,
            "componentType" : 5126,
            "count" : 121,
            "type" : "VEC2"
        },
        {
            "bufferView" : 3,
            "componentType" : 5123,
            "count" : 276,
            "type" : "SCALAR"
        },
        {
            "bufferView" : 4,
            "componentType" : 5126,
            "count" : 3649,
            "max" : [
                2.5,
                -3.799999952316284,
                4.650000095367432
            ],
            "min" : [
                -2.200000047683716,
                -4,
                -4.61299991607666
            ],
            "type" : "VEC3"
        },
        {
            "bufferView" : 5,
            "componentType" : 5126,
            "count" : 3649,
            "type" : "VEC3"
        },
        {
            "bufferView" : 6,
            "componentType" : 5123,
            "count" : 13629,
            "type" : "SCALAR"
        }
    ],
    "bufferViews" : [
        {
            "buffer" : 0,
            "byteLength" : 1452,
            "byteOffset" : 0
        },
        {
            "buffer" : 0,
            "byteLength" : 1452,
            "byteOffset" : 1452
        },
        {
            "buffer" : 0,
            "byteLength" : 968,
            "byteOffset" : 2904
        },
        {
            "buffer" : 0,
            "byteLength" : 552,
            "byteOffset" : 3872
        },
        {
            "buffer" : 0,
            "byteLength" : 43788,
            "byteOffset" : 4424
        },
        {
            "buffer" : 0,
            "byteLength" : 43788,
            "byteOffset" : 48212
        },
        {
            "buffer" : 0,
            "byteLength" : 27258,
            "byteOffset" : 92000
        }
    ],
    "buffers" : [
        {
            "byteLength" : 119260,
            "uri" : "scene.bin"
        }
    ]
}
