{
    "asset" : {
        "generator" : "Khronos glTF Blender I/O v1.6.16",
        "version" : "2.0"
    },
    "scene" : 0,
    "scenes" : [
        {
            "name" : "Scene",
            "nodes" : [
                8
            ]
        }
    ],
    "nodes" : [
        {
            "mesh" : 0,
            "name" : "Base.002"
        },
        {
            "children" : [
                0
            ],
            "name" : "Object_11.001",
            "scale" : [
                0.987500011920929,
                0.9910709857940674,
                0.987500011920929
            ],
            "translation" : [
                -30,
                -23.91071319580078,
                10
            ]
        },
        {
            "mesh" : 1,
            "name" : "Base.003"
        },
        {
            "children" : [
                2
            ],
            "name" : "Object_13.001",
            "scale" : [
                0.987500011920929,
                0.9910709857940674,
                0.987500011920929
            ],
            "translation" : [
                -30,
                -24.113882064819336,
                10
            ]
        },
        {
            "children" : [
                1,
                3
            ],
            "name" : "Inner-Node-UntitledModel_dot_io-0"
        },
        {
            "children" : [
                4
            ],
            "name" : "Node-UntitledModel_dot_io"
        },
        {
            "children" : [
                5
            ],
            "name" : "Model",
            "rotation" : [
                0,
                1,
                0,
                0
            ],
            "scale" : [
                -1,
                -1,
                -1
            ]
        },
        {
            "children" : [
                6
            ],
            "name" : "Collada visual scene group",
            "rotation" : [
                0.7071068286895752,
                0,
                0,
                0.7071068286895752
            ]
        },
        {
            "children" : [
                7
            ],
            "name" : "Sketchfab_model",
            "rotation" : [
                -0.7071068286895752,
                0,
                0,
                0.7071068286895752
            ],
            "scale" : [
                0.10000000149011612,
                0.10000000149011612,
                0.10000000149011612
            ],
            "translation" : [
                3,
                0,
                -1
            ]
        }
    ],
    "materials" : [
        {
            "doubleSided" : true,
            "name" : "SOLID-WHITE.003",
            "pbrMetallicRoughness" : {
                "baseColorFactor" : [
                    0.9960780143737793,
                    0.9960780143737793,
                    0.9960780143737793,
                    1
                ],
                "metallicFactor" : 0,
                "roughnessFactor" : 0.6636414527893066
            }
        },
        {
            "doubleSided" : true,
            "name" : "SOLID-WHITE_0.004",
            "pbrMetallicRoughness" : {
                "baseColorFactor" : [
                    0.9960780143737793,
                    0.9960780143737793,
                    0.9960780143737793,
                    1
                ],
                "metallicFactor" : 0,
                "roughnessFactor" : 0.6636414527893066
            }
        }
    ],
    "meshes" : [
        {
            "name" : "Base.006",
            "primitives" : [
                {
                    "attributes" : {
                        "POSITION" : 0,
                        "NORMAL" : 1
                    },
                    "indices" : 2,
                    "material" : 0
                }
            ]
        },
        {
            "name" : "Base.007",
            "primitives" : [
                {
                    "attributes" : {
                        "POSITION" : 3,
                        "NORMAL" : 4
                    },
                    "indices" : 5,
                    "material" : 1
                }
            ]
        }
    ],
    "accessors" : [
        {
            "bufferView" : 0,
            "componentType" : 5126,
            "count" : 193,
            "max" : [
                10,
                24,
                10
            ],
            "min" : [
                -10,
                -4,
                -10
            ],
            "type" : "VEC3"
        },
        {
            "bufferView" : 1,
            "componentType" : 5126,
            "count" : 193,
            "type" : "VEC3"
        },
        {
            "bufferView" : 2,
            "componentType" : 5123,
            "count" : 516,
            "type" : "SCALAR"
        },
        {
            "bufferView" : 3,
            "componentType" : 5126,
            "count" : 3649,
            "max" : [
                2.5,
                -3.799999952316284,
                4.650000095367432
            ],
            "min" : [
                -2.200000047683716,
                -4,
                -4.61299991607666
            ],
            "type" : "VEC3"
        },
        {
            "bufferView" : 4,
            "componentType" : 5126,
            "count" : 3649,
            "type" : "VEC3"
        },
        {
            "bufferView" : 5,
            "componentType" : 5123,
            "count" : 13629,
            "type" : "SCALAR"
        }
    ],
    "bufferViews" : [
        {
            "buffer" : 0,
            "byteLength" : 2316,
            "byteOffset" : 0
        },
        {
            "buffer" : 0,
            "byteLength" : 2316,
            "byteOffset" : 2316
        },
        {
            "buffer" : 0,
            "byteLength" : 1032,
            "byteOffset" : 4632
        },
        {
            "buffer" : 0,
            "byteLength" : 43788,
            "byteOffset" : 5664
        },
        {
            "buffer" : 0,
            "byteLength" : 43788,
            "byteOffset" : 49452
        },
        {
            "buffer" : 0,
            "byteLength" : 27258,
            "byteOffset" : 93240
        }
    ],
    "buffers" : [
        {
            "byteLength" : 120500,
            "uri" : "scene.bin"
        }
    ]
}
