{
  "accessors": [
    {
      "bufferView": 1,
      "componentType": 5126,
      "count": 193,
      "max": [
        10.0,
        24.0,
        10.0
      ],
      "min": [
        -10.0,
        -4.0,
        -10.0
      ],
      "type": "VEC3"
    },
    {
      "bufferView": 1,
      "byteOffset": 2316,
      "componentType": 5126,
      "count": 193,
      "max": [
        1.0,
        1.0,
        1.0
      ],
      "min": [
        -1.0,
        -1.0,
        -1.0
      ],
      "type": "VEC3"
    },
    {
      "bufferView": 0,
      "componentType": 5125,
      "count": 516,
      "type": "SCALAR"
    },
    {
      "bufferView": 1,
      "byteOffset": 4632,
      "componentType": 5126,
      "count": 3100,
      "max": [
        2.5,
        -3.799999952316284,
        4.650000095367432
      ],
      "min": [
        -2.200000047683716,
        -4.0,
        -4.61299991607666
      ],
      "type": "VEC3"
    },
    {
      "bufferView": 1,
      "byteOffset": 41832,
      "componentType": 5126,
      "count": 3100,
      "max": [
        0.9966243505477905,
        0.9999983310699463,
        0.9966244101524353
      ],
      "min": [
        -0.9966245889663696,
        -1.0,
        -0.9966244101524353
      ],
      "type": "VEC3"
    },
    {
      "bufferView": 0,
      "byteOffset": 2064,
      "componentType": 5125,
      "count": 13629,
      "type": "SCALAR"
    }
  ],
  "asset": {
    "extras": {
      "author": "Snakes6810 (https://sketchfab.com/Snakes6810)",
      "license": "CC-BY-4.0 (http://creativecommons.org/licenses/by/4.0/)",
      "source": "https://sketchfab.com/3d-models/1x1-lego-ece667ea57ae4333989502c01c6c14da",
      "title": "1x1 lego"
    },
    "generator": "Sketchfab-11.57.0",
    "version": "2.0"
  },
  "bufferViews": [
    {
      "buffer": 0,
      "byteLength": 56580,
      "name": "floatBufferViews",
      "target": 34963
    },
    {
      "buffer": 0,
      "byteLength": 79032,
      "byteOffset": 56580,
      "byteStride": 12,
      "name": "floatBufferViews",
      "target": 34962
    }
  ],
  "buffers": [
    {
      "byteLength": 135612,
      "uri": "scene.bin"
    }
  ],
  "materials": [
    {
      "doubleSided": true,
      "name": "SOLID-WHITE",
      "pbrMetallicRoughness": {
        "baseColorFactor": [
          0.996078,
          0.996078,
          0.996078,
          1.0
        ],
        "metallicFactor": 0.0,
        "roughnessFactor": 0.6636414338985142
      }
    },
    {
      "doubleSided": true,
      "name": "SOLID-WHITE_0",
      "pbrMetallicRoughness": {
        "baseColorFactor": [
          0.996078,
          0.996078,
          0.996078,
          1.0
        ],
        "metallicFactor": 0.0,
        "roughnessFactor": 0.6636414338985142
      }
    }
  ],
  "meshes": [
    {
      "name": "Base",
      "primitives": [
        {
          "attributes": {
            "NORMAL": 1,
            "POSITION": 0
          },
          "indices": 2,
          "material": 0,
          "mode": 4
        }
      ]
    },
    {
      "name": "Base",
      "primitives": [
        {
          "attributes": {
            "NORMAL": 4,
            "POSITION": 3
          },
          "indices": 5,
          "material": 1,
          "mode": 4
        }
      ]
    }
  ],
  "nodes": [
    {
      "children": [
        1
      ],
      "matrix": [
        1.0,
        0.0,
        0.0,
        0.0,
        0.0,
        2.220446049250313e-16,
        -1.0,
        0.0,
        0.0,
        1.0,
        2.220446049250313e-16,
        0.0,
        0.0,
        0.0,
        0.0,
        1.0
      ],
      "name": "Sketchfab_model"
    },
    {
      "children": [
        2,
        4,
        6,
        8
      ],
      "matrix": [
        1.0,
        0.0,
        0.0,
        0.0,
        0.0,
        -4.371139006309477e-08,
        0.999999999999999,
        0.0,
        0.0,
        -0.999999999999999,
        -4.371139006309477e-08,
        0.0,
        0.0,
        0.0,
        0.0,
        1.0
      ],
      "name": "Collada visual scene group"
    },
    {
      "children": [
        3
      ],
      "matrix": [
        1.00000024,
        2.86438819e-07,
        -3.28686838e-07,
        0.0,
        -4.3082639e-07,
        0.764842391,
        -0.64421767,
        0.0,
        6.68646436e-08,
        0.64421767,
        0.764842272,
        0.0,
        0.104868911,
        516.193848,
        612.847168,
        1.0
      ],
      "name": "Light_Node_2"
    },
    {
      "name": "light_id_1"
    },
    {
      "children": [
        5
      ],
      "matrix": [
        1.00000024,
        2.86438819e-07,
        -3.28686838e-07,
        0.0,
        -4.3082639e-07,
        0.764842391,
        -0.64421767,
        0.0,
        6.68646436e-08,
        0.64421767,
        0.764842272,
        0.0,
        0.104868911,
        516.193848,
        612.847168,
        1.0
      ],
      "name": "Light_Node_1"
    },
    {
      "name": "light_id_0"
    },
    {
      "children": [
        7
      ],
      "matrix": [
        1.00000024,
        2.86438819e-07,
        -3.28686838e-07,
        0.0,
        -4.3082639e-07,
        0.764842391,
        -0.64421767,
        0.0,
        6.68646436e-08,
        0.64421767,
        0.764842272,
        0.0,
        0.104868911,
        516.193848,
        612.847168,
        1.0
      ],
      "name": "Camera_Node"
    },
    {
      "name": "camera_id_main"
    },
    {
      "children": [
        9
      ],
      "matrix": [
        1.0,
        0.0,
        0.0,
        0.0,
        0.0,
        -1.0,
        0.0,
        0.0,
        0.0,
        0.0,
        1.0,
        0.0,
        0.0,
        0.0,
        0.0,
        1.0
      ],
      "name": "Model"
    },
    {
      "children": [
        10
      ],
      "name": "Node-UntitledModel_dot_io"
    },
    {
      "children": [
        11,
        13
      ],
      "name": "Inner-Node-UntitledModel_dot_io-0"
    },
    {
      "children": [
        12
      ],
      "matrix": [
        0.987500012,
        0.0,
        0.0,
        0.0,
        0.0,
        0.991070986,
        0.0,
        0.0,
        0.0,
        0.0,
        0.987500012,
        0.0,
        -30.0,
        -23.9107132,
        10.0,
        1.0
      ],
      "name": "Object_11"
    },
    {
      "mesh": 0,
      "name": "Base"
    },
    {
      "children": [
        14
      ],
      "matrix": [
        0.987500012,
        0.0,
        0.0,
        0.0,
        0.0,
        0.991070986,
        0.0,
        0.0,
        0.0,
        0.0,
        0.987500012,
        0.0,
        -30.0,
        -24.1138821,
        10.0,
        1.0
      ],
      "name": "Object_13"
    },
    {
      "mesh": 1,
      "name": "Base"
    }
  ],
  "scene": 0,
  "scenes": [
    {
      "name": "Sketchfab_Scene",
      "nodes": [
        0
      ]
    }
  ]
}
