{
    "asset" : {
        "generator" : "Khronos glTF Blender I/O v1.6.16",
        "version" : "2.0"
    },
    "scene" : 0,
    "scenes" : [
        {
            "name" : "Scene",
            "nodes" : [
                0,
                7
            ]
        }
    ],
    "nodes" : [
        {
            "mesh" : 0,
            "name" : "pCube17_lambert1_0",
            "scale" : [
                0.20000000298023224,
                0.20000000298023224,
                0.20000000298023224
            ],
            "translation" : [
                0,
                1.2999999523162842,
                -1.125
            ]
        },
        {
            "mesh" : 1,
            "name" : "Base.003"
        },
        {
            "children" : [
                1
            ],
            "name" : "Object_13.001",
            "scale" : [
                0.987500011920929,
                0.9910709857940674,
                0.987500011920929
            ],
            "translation" : [
                -30,
                -24.113882064819336,
                10
            ]
        },
        {
            "children" : [
                2
            ],
            "name" : "Inner-Node-UntitledModel_dot_io-0"
        },
        {
            "children" : [
                3
            ],
            "name" : "Node-UntitledModel_dot_io"
        },
        {
            "children" : [
                4
            ],
            "name" : "Model",
            "rotation" : [
                0,
                1,
                0,
                0
            ],
            "scale" : [
                -1,
                -1,
                -1
            ]
        },
        {
            "children" : [
                5
            ],
            "name" : "Collada visual scene group",
            "rotation" : [
                0.7071068286895752,
                0,
                0,
                0.7071068286895752
            ]
        },
        {
            "children" : [
                6
            ],
            "name" : "Sketchfab_model",
            "rotation" : [
                -0.7071068286895752,
                0,
                0,
                0.7071068286895752
            ],
            "scale" : [
                0.10000000149011612,
                0.10000000149011612,
                0.10000000149011612
            ],
            "translation" : [
                3,
                0,
                -1
            ]
        }
    ],
    "materials" : [
        {
            "doubleSided" : true,
            "name" : "lambert1",
            "pbrMetallicRoughness" : {
                "baseColorFactor" : [
                    0.4000000059604645,
                    0.4000000059604645,
                    0.4000000059604645,
                    1
                ],
                "metallicFactor" : 0,
                "roughnessFactor" : 0.6000000238418579
            }
        },
        {
            "doubleSided" : true,
            "name" : "SOLID-WHITE_0.004",
            "pbrMetallicRoughness" : {
                "baseColorFactor" : [
                    0.9960780143737793,
                    0.9960780143737793,
                    0.9960780143737793,
                    1
                ],
                "metallicFactor" : 0,
                "roughnessFactor" : 0.6636414527893066
            }
        }
    ],
    "meshes" : [
        {
            "name" : "pCube17_lambert1_0",
            "primitives" : [
                {
                    "attributes" : {
                        "POSITION" : 0,
                        "NORMAL" : 1,
                        "TEXCOORD_0" : 2
                    },
                    "indices" : 3,
                    "material" : 0
                }
            ]
        },
        {
            "name" : "Base.007",
            "primitives" : [
                {
                    "attributes" : {
                        "POSITION" : 4,
                        "NORMAL" : 5
                    },
                    "indices" : 6,
                    "material" : 1
                }
            ]
        }
    ],
    "accessors" : [
        {
            "bufferView" : 0,
            "componentType" : 5126,
            "count" : 145,
            "max" : [
                5,
                7.420777320861816,
                10.641904830932617
            ],
            "min" : [
                -5,
                -6.879222869873047,
                0.6419048309326172
            ],
            "type" : "VEC3"
        },
        {
            "bufferView" : 1,
            "componentType" : 5126,
            "count" : 145,
            "type" : "VEC3"
        },
        {
            "bufferView" : 2,
            "componentType" : 5126,
            "count" : 145,
            "type" : "VEC2"
        },
        {
            "bufferView" : 3,
            "componentType" : 5123,
            "count" : 276,
            "type" : "SCALAR"
        },
        {
            "bufferView" : 4,
            "componentType" : 5126,
            "count" : 3649,
            "max" : [
                2.5,
                -3.799999952316284,
                4.650000095367432
            ],
            "min" : [
                -2.200000047683716,
                -4,
                -4.61299991607666
            ],
            "type" : "VEC3"
        },
        {
            "bufferView" : 5,
            "componentType" : 5126,
            "count" : 3649,
            "type" : "VEC3"
        },
        {
            "bufferView" : 6,
            "componentType" : 5123,
            "count" : 13629,
            "type" : "SCALAR"
        }
    ],
    "bufferViews" : [
        {
            "buffer" : 0,
            "byteLength" : 1740,
            "byteOffset" : 0
        },
        {
            "buffer" : 0,
            "byteLength" : 1740,
            "byteOffset" : 1740
        },
        {
            "buffer" : 0,
            "byteLength" : 1160,
            "byteOffset" : 3480
        },
        {
            "buffer" : 0,
            "byteLength" : 552,
            "byteOffset" : 4640
        },
        {
            "buffer" : 0,
            "byteLength" : 43788,
            "byteOffset" : 5192
        },
        {
            "buffer" : 0,
            "byteLength" : 43788,
            "byteOffset" : 48980
        },
        {
            "buffer" : 0,
            "byteLength" : 27258,
            "byteOffset" : 92768
        }
    ],
    "buffers" : [
        {
            "byteLength" : 120028,
            "uri" : "scene.bin"
        }
    ]
}
